<mxfile host="app.diagrams.net" modified="2023-10-18T05:51:12.443Z" agent="Mozilla/5.0 (Windows NT 10.0; Win64; x64; rv:109.0) Gecko/20100101 Firefox/118.0" etag="tJTS5rJ4TrxltOSdjWXq" version="22.0.4" type="github">
  <diagram id="C5RBs43oDa-KdzZeNtuy" name="Page-1">
    <mxGraphModel dx="573" dy="642" grid="1" gridSize="10" guides="1" tooltips="1" connect="1" arrows="1" fold="1" page="1" pageScale="1" pageWidth="827" pageHeight="1169" math="0" shadow="0">
      <root>
        <mxCell id="WIyWlLk6GJQsqaUBKTNV-0" />
        <mxCell id="WIyWlLk6GJQsqaUBKTNV-1" parent="WIyWlLk6GJQsqaUBKTNV-0" />
        <mxCell id="TTZi28Bf1A1u7bKDsrXu-1" value="" style="edgeStyle=none;curved=1;rounded=0;orthogonalLoop=1;jettySize=auto;html=1;fontSize=12;startSize=8;endSize=8;" edge="1" parent="WIyWlLk6GJQsqaUBKTNV-1" source="WIyWlLk6GJQsqaUBKTNV-3" target="WIyWlLk6GJQsqaUBKTNV-6">
          <mxGeometry relative="1" as="geometry" />
        </mxCell>
        <mxCell id="WIyWlLk6GJQsqaUBKTNV-3" value="Welcome to Extreme Ultimate Racing Showdown Extraordinaire 9000 Your mission is simple, make it to the finish line." style="rounded=1;whiteSpace=wrap;html=1;fontSize=12;glass=0;strokeWidth=1;shadow=0;" parent="WIyWlLk6GJQsqaUBKTNV-1" vertex="1">
          <mxGeometry x="158" y="40" width="400" height="40" as="geometry" />
        </mxCell>
        <mxCell id="TTZi28Bf1A1u7bKDsrXu-2" value="" style="edgeStyle=none;curved=1;rounded=0;orthogonalLoop=1;jettySize=auto;html=1;fontSize=12;startSize=8;endSize=8;" edge="1" parent="WIyWlLk6GJQsqaUBKTNV-1" source="WIyWlLk6GJQsqaUBKTNV-6" target="WIyWlLk6GJQsqaUBKTNV-7">
          <mxGeometry relative="1" as="geometry" />
        </mxCell>
        <mxCell id="TTZi28Bf1A1u7bKDsrXu-3" value="" style="edgeStyle=none;curved=1;rounded=0;orthogonalLoop=1;jettySize=auto;html=1;fontSize=12;startSize=8;endSize=8;" edge="1" parent="WIyWlLk6GJQsqaUBKTNV-1" source="WIyWlLk6GJQsqaUBKTNV-6" target="WIyWlLk6GJQsqaUBKTNV-10">
          <mxGeometry relative="1" as="geometry" />
        </mxCell>
        <mxCell id="TTZi28Bf1A1u7bKDsrXu-15" value="" style="edgeStyle=none;curved=1;rounded=0;orthogonalLoop=1;jettySize=auto;html=1;fontSize=12;startSize=8;endSize=8;" edge="1" parent="WIyWlLk6GJQsqaUBKTNV-1" source="WIyWlLk6GJQsqaUBKTNV-6" target="TTZi28Bf1A1u7bKDsrXu-14">
          <mxGeometry relative="1" as="geometry" />
        </mxCell>
        <mxCell id="WIyWlLk6GJQsqaUBKTNV-6" value="High or Low?" style="rhombus;whiteSpace=wrap;html=1;shadow=0;fontFamily=Helvetica;fontSize=12;align=center;strokeWidth=1;spacing=6;spacingTop=-4;" parent="WIyWlLk6GJQsqaUBKTNV-1" vertex="1">
          <mxGeometry x="300.5" y="165" width="115" height="70" as="geometry" />
        </mxCell>
        <mxCell id="WIyWlLk6GJQsqaUBKTNV-7" value="What a fool! You didn&#39;t see the wall?!&lt;br&gt;Game Over" style="rounded=1;whiteSpace=wrap;html=1;fontSize=12;glass=0;strokeWidth=1;shadow=0;" parent="WIyWlLk6GJQsqaUBKTNV-1" vertex="1">
          <mxGeometry x="470" y="180" width="210" height="40" as="geometry" />
        </mxCell>
        <mxCell id="TTZi28Bf1A1u7bKDsrXu-4" value="" style="edgeStyle=none;curved=1;rounded=0;orthogonalLoop=1;jettySize=auto;html=1;fontSize=12;startSize=8;endSize=8;" edge="1" parent="WIyWlLk6GJQsqaUBKTNV-1" source="WIyWlLk6GJQsqaUBKTNV-10" target="WIyWlLk6GJQsqaUBKTNV-12">
          <mxGeometry relative="1" as="geometry" />
        </mxCell>
        <mxCell id="TTZi28Bf1A1u7bKDsrXu-6" value="" style="edgeStyle=none;curved=1;rounded=0;orthogonalLoop=1;jettySize=auto;html=1;fontSize=12;startSize=8;endSize=8;entryX=0.5;entryY=0;entryDx=0;entryDy=0;" edge="1" parent="WIyWlLk6GJQsqaUBKTNV-1" source="WIyWlLk6GJQsqaUBKTNV-10" target="XIO7HPUaEEIi33UVeby8-2">
          <mxGeometry relative="1" as="geometry">
            <mxPoint x="398" y="410" as="targetPoint" />
          </mxGeometry>
        </mxCell>
        <mxCell id="TTZi28Bf1A1u7bKDsrXu-18" value="" style="edgeStyle=none;curved=1;rounded=0;orthogonalLoop=1;jettySize=auto;html=1;fontSize=12;startSize=8;endSize=8;" edge="1" parent="WIyWlLk6GJQsqaUBKTNV-1" source="WIyWlLk6GJQsqaUBKTNV-10" target="TTZi28Bf1A1u7bKDsrXu-17">
          <mxGeometry relative="1" as="geometry" />
        </mxCell>
        <mxCell id="WIyWlLk6GJQsqaUBKTNV-10" value="Gas or Brake?" style="rhombus;whiteSpace=wrap;html=1;shadow=0;fontFamily=Helvetica;fontSize=12;align=center;strokeWidth=1;spacing=6;spacingTop=-4;" parent="WIyWlLk6GJQsqaUBKTNV-1" vertex="1">
          <mxGeometry x="308" y="290" width="100" height="80" as="geometry" />
        </mxCell>
        <mxCell id="WIyWlLk6GJQsqaUBKTNV-12" value="You hit the brakes way too hard, so the guy behind you destroys your car." style="rounded=1;whiteSpace=wrap;html=1;fontSize=12;glass=0;strokeWidth=1;shadow=0;" parent="WIyWlLk6GJQsqaUBKTNV-1" vertex="1">
          <mxGeometry x="515" y="300" width="120" height="60" as="geometry" />
        </mxCell>
        <mxCell id="XIO7HPUaEEIi33UVeby8-8" style="edgeStyle=orthogonalEdgeStyle;rounded=0;orthogonalLoop=1;jettySize=auto;html=1;" parent="WIyWlLk6GJQsqaUBKTNV-1" source="XIO7HPUaEEIi33UVeby8-2" target="XIO7HPUaEEIi33UVeby8-5" edge="1">
          <mxGeometry relative="1" as="geometry" />
        </mxCell>
        <mxCell id="XIO7HPUaEEIi33UVeby8-9" style="edgeStyle=orthogonalEdgeStyle;rounded=0;orthogonalLoop=1;jettySize=auto;html=1;" parent="WIyWlLk6GJQsqaUBKTNV-1" source="XIO7HPUaEEIi33UVeby8-2" target="XIO7HPUaEEIi33UVeby8-7" edge="1">
          <mxGeometry relative="1" as="geometry" />
        </mxCell>
        <mxCell id="XIO7HPUaEEIi33UVeby8-11" style="edgeStyle=orthogonalEdgeStyle;rounded=0;orthogonalLoop=1;jettySize=auto;html=1;entryX=1;entryY=0.5;entryDx=0;entryDy=0;" parent="WIyWlLk6GJQsqaUBKTNV-1" source="XIO7HPUaEEIi33UVeby8-2" target="XIO7HPUaEEIi33UVeby8-6" edge="1">
          <mxGeometry relative="1" as="geometry" />
        </mxCell>
        <mxCell id="Pod9ZpCUuWyWAEJu8RBV-5" style="edgeStyle=orthogonalEdgeStyle;rounded=0;orthogonalLoop=1;jettySize=auto;html=1;exitX=1;exitY=1;exitDx=0;exitDy=0;" parent="WIyWlLk6GJQsqaUBKTNV-1" source="XIO7HPUaEEIi33UVeby8-2" target="Pod9ZpCUuWyWAEJu8RBV-4" edge="1">
          <mxGeometry relative="1" as="geometry">
            <Array as="points">
              <mxPoint x="386" y="510" />
              <mxPoint x="560" y="510" />
            </Array>
          </mxGeometry>
        </mxCell>
        <mxCell id="XIO7HPUaEEIi33UVeby8-2" value="&lt;div style=&quot;font-size: 11px;&quot;&gt;Aggressive, Defensive,&lt;/div&gt;&lt;div style=&quot;font-size: 11px;&quot;&gt;Reckless&lt;br style=&quot;font-size: 11px;&quot;&gt;&lt;/div&gt;" style="rhombus;whiteSpace=wrap;html=1;fontSize=11;fontFamily=Verdana;spacing=2;spacingLeft=0;spacingBottom=0;spacingRight=0;spacingTop=0;horizontal=1;" parent="WIyWlLk6GJQsqaUBKTNV-1" vertex="1">
          <mxGeometry x="303" y="430" width="110" height="80" as="geometry" />
        </mxCell>
        <mxCell id="XIO7HPUaEEIi33UVeby8-5" value="&lt;div&gt;Now is not the time to back off!&lt;/div&gt;&lt;div&gt;YOU LOSE&lt;br&gt;&lt;/div&gt;" style="rounded=1;whiteSpace=wrap;html=1;fontSize=12;glass=0;strokeWidth=1;shadow=0;" parent="WIyWlLk6GJQsqaUBKTNV-1" vertex="1">
          <mxGeometry x="515" y="450" width="120" height="40" as="geometry" />
        </mxCell>
        <mxCell id="XIO7HPUaEEIi33UVeby8-6" value="You overtake into 1st place, and then your motor explodes because you ignored your crew chief" style="rounded=1;whiteSpace=wrap;html=1;fontSize=12;glass=0;strokeWidth=1;shadow=0;" parent="WIyWlLk6GJQsqaUBKTNV-1" vertex="1">
          <mxGeometry x="118" y="430" width="120" height="80" as="geometry" />
        </mxCell>
        <mxCell id="XIO7HPUaEEIi33UVeby8-7" value="You Win! Here&#39;s a cookie." style="rounded=1;whiteSpace=wrap;html=1;fontSize=12;glass=0;strokeWidth=1;shadow=0;" parent="WIyWlLk6GJQsqaUBKTNV-1" vertex="1">
          <mxGeometry x="298" y="564" width="120" height="40" as="geometry" />
        </mxCell>
        <mxCell id="XIO7HPUaEEIi33UVeby8-12" value="&lt;div&gt;Def&lt;/div&gt;" style="text;html=1;align=center;verticalAlign=middle;resizable=0;points=[];autosize=1;" parent="WIyWlLk6GJQsqaUBKTNV-1" vertex="1">
          <mxGeometry x="428" y="445" width="40" height="30" as="geometry" />
        </mxCell>
        <mxCell id="XIO7HPUaEEIi33UVeby8-15" value="&lt;div&gt;Aggro&lt;/div&gt;" style="text;html=1;align=center;verticalAlign=middle;resizable=0;points=[];autosize=1;" parent="WIyWlLk6GJQsqaUBKTNV-1" vertex="1">
          <mxGeometry x="250.5" y="445" width="60" height="30" as="geometry" />
        </mxCell>
        <mxCell id="Pod9ZpCUuWyWAEJu8RBV-4" value="If you ain&#39;t first, you&#39;re last." style="rounded=1;whiteSpace=wrap;html=1;fontSize=12;glass=0;strokeWidth=1;shadow=0;" parent="WIyWlLk6GJQsqaUBKTNV-1" vertex="1">
          <mxGeometry x="515" y="565" width="120" height="40" as="geometry" />
        </mxCell>
        <mxCell id="Pod9ZpCUuWyWAEJu8RBV-6" value="Anything else" style="text;html=1;" parent="WIyWlLk6GJQsqaUBKTNV-1" vertex="1">
          <mxGeometry x="414" y="490" width="50" height="30" as="geometry" />
        </mxCell>
        <mxCell id="TTZi28Bf1A1u7bKDsrXu-7" value="&lt;div&gt;Low&lt;/div&gt;" style="text;html=1;align=center;verticalAlign=middle;resizable=0;points=[];autosize=1;strokeColor=none;fillColor=none;fontSize=16;" vertex="1" parent="WIyWlLk6GJQsqaUBKTNV-1">
          <mxGeometry x="415.5" y="170" width="50" height="30" as="geometry" />
        </mxCell>
        <mxCell id="TTZi28Bf1A1u7bKDsrXu-8" value="High" style="text;html=1;align=center;verticalAlign=middle;resizable=0;points=[];autosize=1;strokeColor=none;fillColor=none;fontSize=16;" vertex="1" parent="WIyWlLk6GJQsqaUBKTNV-1">
          <mxGeometry x="358" y="235" width="60" height="30" as="geometry" />
        </mxCell>
        <mxCell id="TTZi28Bf1A1u7bKDsrXu-9" value="Brake" style="text;html=1;align=center;verticalAlign=middle;resizable=0;points=[];autosize=1;strokeColor=none;fillColor=none;fontSize=16;" vertex="1" parent="WIyWlLk6GJQsqaUBKTNV-1">
          <mxGeometry x="410" y="300" width="70" height="30" as="geometry" />
        </mxCell>
        <mxCell id="TTZi28Bf1A1u7bKDsrXu-11" value="Gas" style="text;html=1;align=center;verticalAlign=middle;resizable=0;points=[];autosize=1;strokeColor=none;fillColor=none;fontSize=16;" vertex="1" parent="WIyWlLk6GJQsqaUBKTNV-1">
          <mxGeometry x="358" y="378" width="50" height="30" as="geometry" />
        </mxCell>
        <mxCell id="TTZi28Bf1A1u7bKDsrXu-12" value="&lt;div&gt;Risky&lt;/div&gt;" style="text;html=1;align=center;verticalAlign=middle;resizable=0;points=[];autosize=1;strokeColor=none;fillColor=none;fontSize=16;" vertex="1" parent="WIyWlLk6GJQsqaUBKTNV-1">
          <mxGeometry x="303" y="520" width="60" height="30" as="geometry" />
        </mxCell>
        <mxCell id="TTZi28Bf1A1u7bKDsrXu-14" value="Directions are hard." style="rounded=1;whiteSpace=wrap;html=1;fontSize=16;" vertex="1" parent="WIyWlLk6GJQsqaUBKTNV-1">
          <mxGeometry x="118" y="170" width="120" height="60" as="geometry" />
        </mxCell>
        <mxCell id="TTZi28Bf1A1u7bKDsrXu-16" value="&lt;div&gt;Other&lt;/div&gt;" style="text;html=1;align=center;verticalAlign=middle;resizable=0;points=[];autosize=1;strokeColor=none;fillColor=none;fontSize=16;" vertex="1" parent="WIyWlLk6GJQsqaUBKTNV-1">
          <mxGeometry x="240.5" y="170" width="60" height="30" as="geometry" />
        </mxCell>
        <mxCell id="TTZi28Bf1A1u7bKDsrXu-17" value="Come on, it&#39;s one or the other." style="rounded=1;whiteSpace=wrap;html=1;fontSize=16;" vertex="1" parent="WIyWlLk6GJQsqaUBKTNV-1">
          <mxGeometry x="118" y="300" width="120" height="60" as="geometry" />
        </mxCell>
        <mxCell id="TTZi28Bf1A1u7bKDsrXu-19" value="Other" style="text;html=1;align=center;verticalAlign=middle;resizable=0;points=[];autosize=1;strokeColor=none;fillColor=none;fontSize=16;" vertex="1" parent="WIyWlLk6GJQsqaUBKTNV-1">
          <mxGeometry x="248" y="300" width="60" height="30" as="geometry" />
        </mxCell>
      </root>
    </mxGraphModel>
  </diagram>
</mxfile>
